<?xml version="1.0" encoding="UTF-8"?><svg xmlns="http://www.w3.org/2000/svg" xmlns:xlink="http://www.w3.org/1999/xlink" viewBox="0 0 470 300"><defs><style>.cls-1{fill:none;}.cls-2{isolation:isolate;}.cls-3{fill:#d4d4d4;}.cls-4{fill:#003829;}.cls-5{fill:url(#New_Pattern_2_copy);mix-blend-mode:soft-light;}</style><pattern id="New_Pattern_2_copy" x="0" y="0" width="74.84" height="71.78" patternTransform="translate(-4067.58 4560.88)" patternUnits="userSpaceOnUse" viewBox="0 0 74.84 71.78"><rect class="cls-1" x="0" width="74.84" height="71.78"/><path class="cls-3" d="M69.06,56.74v-2.49h-11.92v2.49h3.96v8.65h4.01v-8.65h3.95Z"/><path class="cls-3" d="M80.84,65.39l-4.83-11.15h-4.55l-4.82,11.15h4.39l.6-1.82h4.26l.6,1.82h4.34ZM75.06,61.11h-2.59l1.28-3.77,1.31,3.77Z"/><path class="cls-3" d="M6,65.39l-4.83-11.15H-3.38l-4.82,11.15H-3.8l.6-1.82H1.06l.6,1.82h4.34ZM.22,61.11h-2.59l1.28-3.77,1.31,3.77Z"/><path class="cls-3" d="M19.43,59.78c0-1.69-.65-2.84-1.01-3.38-.77-1.11-2.15-2.27-5.1-2.51-.51-.05-.99-.05-1.5-.05-2.49.03-3.85.6-4.8,1.25-.92.62-2.42,2.02-2.42,4.83,0,.71.05,2.16,1.23,3.6.55.66,1.11,1.03,1.41,1.2.9.54,2.34,1.06,4.7,1.06,1.58,0,2.56-.19,3.2-.38.66-.19,1.23-.46,1.82-.85,2.26-1.53,2.46-3.77,2.46-4.77ZM15.32,59.81c0,1.26-.51,2.68-1.75,3.24-.6.27-1.31.27-1.5.27-.68,0-2.48-.14-3.14-2.13-.21-.58-.22-1.15-.22-1.36,0-1.36.6-2.7,1.91-3.25.49-.21.92-.25,1.44-.25.6,0,.9.08,1.18.17.54.19.92.47,1.07.63.41.36,1.01,1.26,1.01,2.68Z"/><path class="cls-3" d="M32.46,65.39v-11.15h-4.04v4.06h-4.86v-4.06h-4.03v11.15h4.01v-4.28h4.88v4.28h4.04Z"/><path class="cls-3" d="M44.84,61.85c0,.76-.27,1.53-.74,2.12-.93,1.17-2.61,1.82-5.65,1.82-2.62,0-4.1-.62-4.93-1.55-.76-.84-.84-1.7-.9-2.12v-.09h3.93c.03.19.11.49.51.77.38.28.93.49,1.97.49.41,0,.92-.05,1.29-.24.33-.17.63-.49.63-.88,0-.25-.11-.58-.63-.81-.27-.11-.93-.24-1.7-.38-.87-.17-1.75-.32-2.62-.55-.95-.27-1.82-.6-2.38-1.47-.41-.63-.44-1.26-.44-1.55,0-.6.17-1.15.49-1.64.73-1.17,2.27-1.94,5.13-1.94.98,0,2.54.13,3.47.44.39.13.76.31,1.09.57,1.22.94,1.32,2.46,1.32,2.46h-3.92c-.05-.12-.08-.25-.14-.36-.25-.43-.82-.68-1.83-.68-.06,0-1.03-.02-1.5.38-.22.17-.25.43-.25.54,0,.13.03.33.25.51.55.44,2.53.71,4.52,1.17,1.28.3,1.88.63,2.3,1.09.28.28.74.87.74,1.91Z"/><path class="cls-3" d="M59.71,80.19v2.49h11.92v-2.49h-3.96v-8.65h-4.01v8.65h-3.95Z"/><path class="cls-3" d="M47.93,71.54l4.83,11.15h4.55l4.82-11.15h-4.39l-.6,1.82h-4.26l-.6-1.82h-4.34ZM53.71,75.82h2.59l-1.28,3.77-1.31-3.77Z"/><path class="cls-3" d="M34.5,77.15c0,1.69.65,2.84,1.01,3.38.77,1.11,2.15,2.27,5.1,2.51.51.05.99.05,1.5.05,2.49-.03,3.85-.6,4.8-1.25.92-.62,2.42-2.02,2.42-4.83,0-.71-.05-2.16-1.23-3.6-.55-.66-1.11-1.03-1.41-1.2-.9-.54-2.34-1.06-4.7-1.06-1.58,0-2.56.19-3.2.38-.66.19-1.23.46-1.82.85-2.26,1.53-2.46,3.77-2.46,4.77ZM38.6,77.12c0-1.26.51-2.68,1.75-3.24.6-.27,1.31-.27,1.5-.27.68,0,2.48.14,3.14,2.13.21.58.22,1.15.22,1.36,0,1.36-.6,2.7-1.91,3.25-.49.21-.92.25-1.44.25-.6,0-.9-.08-1.18-.17-.54-.19-.92-.47-1.07-.63-.41-.36-1.01-1.26-1.01-2.68Z"/><path class="cls-3" d="M21.47,71.54v11.15h4.04v-4.06h4.86v4.06h4.03v-11.15h-4.01v4.28h-4.88v-4.28h-4.04Z"/><path class="cls-3" d="M9.09,75.08c0-.76.27-1.53.74-2.12.93-1.17,2.61-1.82,5.65-1.82,2.62,0,4.1.62,4.93,1.55.76.84.84,1.7.9,2.12v.09h-3.93c-.03-.19-.11-.49-.51-.77-.38-.28-.93-.49-1.97-.49-.41,0-.92.05-1.29.24-.33.17-.63.49-.63.88,0,.25.11.58.63.81.27.11.93.24,1.7.38.87.17,1.75.32,2.62.55.95.27,1.82.6,2.38,1.47.41.63.44,1.26.44,1.55,0,.6-.17,1.15-.49,1.64-.73,1.17-2.27,1.94-5.13,1.94-.98,0-2.54-.13-3.47-.44-.39-.13-.76-.31-1.09-.57-1.22-.94-1.32-2.46-1.32-2.46h3.92c.05.12.08.25.14.36.25.43.82.68,1.83.68.06,0,1.03.02,1.5-.38.22-.17.25-.43.25-.54,0-.13-.03-.33-.25-.51-.55-.44-2.53-.71-4.52-1.17-1.28-.3-1.88-.63-2.3-1.09-.28-.28-.74-.87-.74-1.91Z"/><path class="cls-3" d="M69.06,20.85v-2.49h-11.92v2.49h3.96v8.65h4.01v-8.65h3.95Z"/><path class="cls-3" d="M80.84,29.5l-4.83-11.15h-4.55l-4.82,11.15h4.39l.6-1.82h4.26l.6,1.82h4.34ZM75.06,25.22h-2.59l1.28-3.77,1.31,3.77Z"/><path class="cls-3" d="M-5.78,20.85v-2.49h-11.92v2.49h3.96v8.65h4.01v-8.65h3.95Z"/><path class="cls-3" d="M6,29.5L1.17,18.35H-3.38l-4.82,11.15H-3.8l.6-1.82H1.06l.6,1.82h4.34ZM.22,25.22h-2.59l1.28-3.77,1.31,3.77Z"/><path class="cls-3" d="M19.43,23.89c0-1.69-.65-2.84-1.01-3.38-.77-1.11-2.15-2.27-5.1-2.51-.51-.05-.99-.05-1.5-.05-2.49.03-3.85.6-4.8,1.25-.92.62-2.42,2.02-2.42,4.83,0,.71.05,2.16,1.23,3.6.55.66,1.11,1.03,1.41,1.2.9.54,2.34,1.06,4.7,1.06,1.58,0,2.56-.19,3.2-.38.66-.19,1.23-.46,1.82-.85,2.26-1.53,2.46-3.77,2.46-4.77ZM15.32,23.92c0,1.26-.51,2.68-1.75,3.24-.6.27-1.31.27-1.5.27-.68,0-2.48-.14-3.14-2.13-.21-.58-.22-1.15-.22-1.36,0-1.36.6-2.7,1.91-3.25.49-.21.92-.25,1.44-.25.6,0,.9.08,1.18.17.54.19.92.47,1.07.63.41.36,1.01,1.26,1.01,2.68Z"/><path class="cls-3" d="M32.46,29.5v-11.15h-4.04v4.06h-4.86v-4.06h-4.03v11.15h4.01v-4.28h4.88v4.28h4.04Z"/><path class="cls-3" d="M44.84,25.96c0,.76-.27,1.53-.74,2.12-.93,1.17-2.61,1.82-5.65,1.82-2.62,0-4.1-.62-4.93-1.55-.76-.84-.84-1.7-.9-2.12v-.09h3.93c.03.19.11.49.51.77.38.28.93.49,1.97.49.41,0,.92-.05,1.29-.24.33-.17.63-.49.63-.88,0-.25-.11-.58-.63-.81-.27-.11-.93-.24-1.7-.38-.87-.17-1.75-.32-2.62-.55-.95-.27-1.82-.6-2.38-1.47-.41-.63-.44-1.26-.44-1.55,0-.6.17-1.15.49-1.64.73-1.17,2.27-1.94,5.13-1.94.98,0,2.54.13,3.47.44.39.13.76.31,1.09.57,1.22.94,1.32,2.46,1.32,2.46h-3.92c-.05-.12-.08-.25-.14-.36-.25-.43-.82-.68-1.83-.68-.06,0-1.03-.02-1.5.38-.22.17-.25.43-.25.54,0,.13.03.33.25.51.55.44,2.53.71,4.52,1.17,1.28.3,1.88.63,2.3,1.09.28.28.74.87.74,1.91Z"/><path class="cls-3" d="M59.71,44.3v2.49h11.92v-2.49h-3.96v-8.65h-4.01v8.65h-3.95Z"/><path class="cls-3" d="M47.93,35.65l4.83,11.15h4.55l4.82-11.15h-4.39l-.6,1.82h-4.26l-.6-1.82h-4.34ZM53.71,39.93h2.59l-1.28,3.77-1.31-3.77Z"/><path class="cls-3" d="M34.5,41.26c0,1.69.65,2.84,1.01,3.38.77,1.11,2.15,2.27,5.1,2.51.51.05.99.05,1.5.05,2.49-.03,3.85-.6,4.8-1.25.92-.62,2.42-2.02,2.42-4.83,0-.71-.05-2.16-1.23-3.6-.55-.66-1.11-1.03-1.41-1.2-.9-.54-2.34-1.06-4.7-1.06-1.58,0-2.56.19-3.2.38-.66.19-1.23.46-1.82.85-2.26,1.53-2.46,3.77-2.46,4.77ZM38.6,41.23c0-1.26.51-2.68,1.75-3.24.6-.27,1.31-.27,1.5-.27.68,0,2.48.14,3.14,2.13.21.58.22,1.15.22,1.36,0,1.36-.6,2.7-1.91,3.25-.49.21-.92.25-1.44.25-.6,0-.9-.08-1.18-.17-.54-.19-.92-.47-1.07-.63-.41-.36-1.01-1.26-1.01-2.68Z"/><path class="cls-3" d="M21.47,35.65v11.15h4.04v-4.06h4.86v4.06h4.03v-11.15h-4.01v4.28h-4.88v-4.28h-4.04Z"/><path class="cls-3" d="M9.09,39.19c0-.76.27-1.53.74-2.12.93-1.17,2.61-1.82,5.65-1.82,2.62,0,4.1.62,4.93,1.55.76.84.84,1.7.9,2.12v.09h-3.93c-.03-.19-.11-.49-.51-.77-.38-.28-.93-.49-1.97-.49-.41,0-.92.05-1.29.24-.33.17-.63.49-.63.88,0,.25.11.58.63.81.27.11.93.24,1.7.38.87.17,1.75.32,2.62.55.95.27,1.82.6,2.38,1.47.41.63.44,1.26.44,1.55,0,.6-.17,1.15-.49,1.64-.73,1.17-2.27,1.94-5.13,1.94-.98,0-2.54-.13-3.47-.44-.39-.13-.76-.31-1.09-.57-1.22-.94-1.32-2.46-1.32-2.46h3.92c.05.12.08.25.14.36.25.43.82.68,1.83.68.06,0,1.03.02,1.5-.38.22-.17.25-.43.25-.54,0-.13-.03-.33-.25-.51-.55-.44-2.53-.71-4.52-1.17-1.28-.3-1.88-.63-2.3-1.09-.28-.28-.74-.87-.74-1.91Z"/><path class="cls-3" d="M59.71,8.41v2.49h11.92v-2.49h-3.96V-.24h-4.01v8.65h-3.95Z"/><path class="cls-3" d="M47.93-.24l4.83,11.15h4.55L62.12-.24h-4.39l-.6,1.82h-4.26l-.6-1.82h-4.34ZM53.71,4.04h2.59l-1.28,3.77-1.31-3.77Z"/><path class="cls-3" d="M34.5,5.37c0,1.69.65,2.84,1.01,3.38.77,1.11,2.15,2.27,5.1,2.51.51.05.99.05,1.5.05,2.49-.03,3.85-.6,4.8-1.25.92-.62,2.42-2.02,2.42-4.83,0-.71-.05-2.16-1.23-3.6-.55-.66-1.11-1.03-1.41-1.2-.9-.54-2.34-1.06-4.7-1.06-1.58,0-2.56.19-3.2.38-.66.19-1.23.46-1.82.85-2.26,1.53-2.46,3.77-2.46,4.77ZM38.6,5.34c0-1.26.51-2.68,1.75-3.24.6-.27,1.31-.27,1.5-.27.68,0,2.48.14,3.14,2.13.21.58.22,1.15.22,1.36,0,1.36-.6,2.7-1.91,3.25-.49.21-.92.25-1.44.25-.6,0-.9-.08-1.18-.17-.54-.19-.92-.47-1.07-.63-.41-.36-1.01-1.26-1.01-2.68Z"/><path class="cls-3" d="M21.47-.24v11.15h4.04v-4.06h4.86v4.06h4.03V-.24h-4.01v4.28h-4.88V-.24h-4.04Z"/><path class="cls-3" d="M9.09,3.3c0-.76.27-1.53.74-2.12C10.76.01,12.44-.63,15.48-.63c2.62,0,4.1.62,4.93,1.55.76.84.84,1.7.9,2.12v.09h-3.93c-.03-.19-.11-.49-.51-.77-.38-.28-.93-.49-1.97-.49-.41,0-.92.05-1.29.24-.33.17-.63.49-.63.88,0,.25.11.58.63.81.27.11.93.24,1.7.38.87.17,1.75.32,2.62.55.95.27,1.82.6,2.38,1.47.41.63.44,1.26.44,1.55,0,.6-.17,1.15-.49,1.64-.73,1.17-2.27,1.94-5.13,1.94-.98,0-2.54-.13-3.47-.44-.39-.13-.76-.31-1.09-.57-1.22-.94-1.32-2.46-1.32-2.46h3.92c.05.12.08.25.14.36.25.43.82.68,1.83.68.06,0,1.03.02,1.5-.38.22-.17.25-.43.25-.54,0-.13-.03-.33-.25-.51-.55-.44-2.53-.71-4.52-1.17-1.28-.3-1.88-.63-2.3-1.09-.28-.28-.74-.87-.74-1.91Z"/></pattern></defs><g class="cls-2"><g id="Layer_3"><g id="Layer_1"><rect class="cls-4" width="470" height="300"/><rect class="cls-5" width="470" height="300"/></g></g></g></svg>