<?xml version="1.0" encoding="UTF-8"?><svg id="Layer_2" xmlns="http://www.w3.org/2000/svg" viewBox="0 0 316.89 60.56"><defs><style>.cls-1{fill:#b79e62;}</style></defs><g id="Layer_1"><path class="cls-1" d="M40.4,14.72v43.84h-20.32V14.72H0V2.08h60.4v12.64h-20Z"/><path class="cls-1" d="M98.08,58.56l-3.04-9.2h-21.6l-3.04,9.2h-22.24L72.56,2.08h23.04l24.48,56.48h-22ZM84.16,17.76l-6.48,19.12h13.12l-6.64-19.12Z"/><path class="cls-1" d="M175.66,54.27c-2.96,2-5.84,3.36-9.2,4.32-3.28.96-8.24,1.92-16.24,1.92-12,0-19.28-2.64-23.84-5.36-1.52-.88-4.32-2.72-7.12-6.08-6-7.28-6.24-14.64-6.24-18.24,0-14.24,7.6-21.36,12.24-24.48C130.05,3.07,136.93.19,149.57.03c2.56,0,5.04,0,7.6.24,14.96,1.2,21.92,7.12,25.84,12.72,1.84,2.72,5.12,8.56,5.12,17.12,0,5.04-1.04,16.4-12.48,24.16ZM162.21,16.67c-.8-.8-2.72-2.24-5.44-3.2-1.44-.48-2.96-.88-6-.88-2.64,0-4.8.24-7.28,1.28-6.64,2.8-9.68,9.6-9.68,16.48,0,1.04.08,3.92,1.12,6.88,3.36,10.08,12.48,10.8,15.92,10.8.96,0,4.56,0,7.6-1.36,6.32-2.8,8.88-10,8.88-16.4,0-7.2-3.04-11.76-5.12-13.6Z"/><path class="cls-1" d="M233.69,58.56v-21.68h-24.72v21.68h-20.32V2.08h20.4v20.56h24.64V2.08h20.48v56.48h-20.48Z"/><path class="cls-1" d="M316.89,40.64c0,3.84-1.36,7.76-3.76,10.72-4.72,5.92-13.2,9.2-28.64,9.2-13.28,0-20.79-3.12-24.96-7.84-3.84-4.24-4.24-8.64-4.56-10.72v-.48h19.92c.16.96.56,2.48,2.56,3.92,1.92,1.44,4.72,2.48,10,2.48,2.08,0,4.64-.24,6.56-1.2,1.68-.88,3.2-2.48,3.2-4.48,0-1.28-.56-2.96-3.2-4.08-1.36-.56-4.72-1.2-8.64-1.92-4.41-.88-8.88-1.6-13.28-2.8-4.8-1.36-9.2-3.04-12.08-7.44-2.08-3.2-2.24-6.4-2.24-7.84,0-3.04.88-5.84,2.48-8.32,3.68-5.92,11.52-9.84,26-9.84,4.96,0,12.88.64,17.6,2.24,2,.64,3.85,1.59,5.52,2.88,6.21,4.77,6.69,12.45,6.69,12.45h-19.38l-.51.03c-.24-.64-.4-1.28-.72-1.84-1.28-2.16-4.16-3.44-9.28-3.44-.32,0-5.2-.08-7.6,1.92-1.12.88-1.28,2.16-1.28,2.72,0,.64.16,1.68,1.28,2.56,2.8,2.24,12.8,3.6,22.88,5.92,6.48,1.52,9.52,3.2,11.68,5.52,1.44,1.44,3.76,4.41,3.76,9.68Z"/></g></svg>